<svg xmlns="http://www.w3.org/2000/svg" viewBox="0 0 1896.92 276.24"><defs><style>.cls-1{fill:#fff;}.cls-2{fill:#1e1e1e;}</style></defs><g id="Layer_2" data-name="Layer 2"><g id="Layer_1-2" data-name="Layer 1"><path class="cls-1" d="M365.26,185.71,433.08,6.19h47.64l63.52,179.52H499.56L442.24,16.42l21.26-1.89L406.44,185.71ZM403.48,147l8.88-32h81.55l4,32Z"/><path class="cls-1" d="M626.33,189.2a86.24,86.24,0,0,1-27.45-4.3A66.92,66.92,0,0,1,576,172a59.06,59.06,0,0,1-15.61-21.8q-5.65-13.19-5.65-30.68,0-18.57,5.38-32.43a62.78,62.78,0,0,1,14.94-23,61.92,61.92,0,0,1,22.47-13.73,84.94,84.94,0,0,1,28.53-4.58A118.9,118.9,0,0,1,648.8,48a92.49,92.49,0,0,1,20.59,6.33V88.82A159.72,159.72,0,0,0,651,81.68a61.37,61.37,0,0,0-18.43-2.82q-17,0-27.32,8.48t-10.36,27.58q0,20.19,9.15,30.41t30.41,10.23a54,54,0,0,0,19.25-3.5,118.64,118.64,0,0,0,16-7.26V179A96.27,96.27,0,0,1,650,186.51,93.7,93.7,0,0,1,626.33,189.2Z"/><path class="cls-1" d="M759.28,189.74q-20.46,0-36.2-8.47A60.15,60.15,0,0,1,698.59,157q-8.75-15.73-8.75-37.54,0-35.53,17.63-55T757.94,45q22.6,0,36.46,9.69T814.72,82.9q6.46,18.55,6.19,45.21H717.3L713,102.54h74.82l-5.92,12.65q-.27-21.79-6.19-30.68t-19.38-8.88a25.23,25.23,0,0,0-13.59,3.77q-6.06,3.76-9.42,12.51T730,116q0,19.38,9.28,29.87T769,156.37a64.61,64.61,0,0,0,14.94-1.75,114.61,114.61,0,0,0,13.86-4.17q6.45-2.43,11-4.31v34.45a123.87,123.87,0,0,1-21.66,6.6A135,135,0,0,1,759.28,189.74Z"/><path class="cls-1" d="M924.53,185.71V6.19h72.13q45.75,0,67.28,22.74t21.53,67.15q0,44.15-21.53,66.88t-67.28,22.75Zm43.6-33.65h23.41q24.23,0,36.74-13.45t12.52-42.53q0-29.6-12.52-42.93T991.54,39.83H968.13Z"/><path class="cls-1" d="M1176.17,189.74q-20.46,0-36.2-8.47A60.15,60.15,0,0,1,1115.48,157q-8.74-15.73-8.74-37.54,0-35.53,17.62-55T1174.83,45q22.61,0,36.47,9.69t20.32,28.26q6.45,18.55,6.19,45.21H1134.19l-4.31-25.57h74.82l-5.92,12.65q-.27-21.79-6.19-30.68t-19.38-8.88a25.23,25.23,0,0,0-13.59,3.77q-6.06,3.76-9.42,12.51T1146.84,116q0,19.38,9.28,29.87t29.74,10.5a64.61,64.61,0,0,0,14.94-1.75,114.61,114.61,0,0,0,13.86-4.17q6.46-2.43,11-4.31v34.45a123.61,123.61,0,0,1-21.66,6.6A135,135,0,0,1,1176.17,189.74Z"/><path class="cls-1" d="M1306.17,189.74q-14.54,0-24.9-3.09a202.92,202.92,0,0,1-19.51-6.87V144.53q5.65,3.76,12.65,7.67a72.31,72.31,0,0,0,15.47,6.32,64.66,64.66,0,0,0,17.9,2.42c6.46,0,11-1.11,13.59-3.36a10.46,10.46,0,0,0,3.91-8.21,8.65,8.65,0,0,0-4-7.4,35.93,35.93,0,0,0-10.5-4.71q-6.45-1.87-13.72-3.5a65.16,65.16,0,0,1-12.92-4.17,39.94,39.94,0,0,1-11.58-7.67,35.86,35.86,0,0,1-8.2-12q-3.1-7.12-3.1-17.36,0-13.18,5.11-21.93a41.51,41.51,0,0,1,13.46-14.13,57.35,57.35,0,0,1,18-7.67,72.72,72.72,0,0,1,18.84-2q16.68.54,26.51,3.63a83.53,83.53,0,0,1,17.9,7.94V89.89q-9.15-5.1-18.17-9.55a46,46,0,0,0-20.59-4.44q-10.49,0-15.07,3.23a10,10,0,0,0-4.57,8.61,10.64,10.64,0,0,0,3.09,8.07,21.77,21.77,0,0,0,8.21,4.71q5.12,1.76,11.31,3.37c4.48,1.07,9.1,2.38,13.86,3.9a55,55,0,0,1,13.45,6.46,30.62,30.62,0,0,1,10.23,11.57q3.9,7.41,3.9,19.51-.27,16.42-8.88,26.25a47.19,47.19,0,0,1-22.2,14A100.1,100.1,0,0,1,1306.17,189.74Z"/><path class="cls-1" d="M1395.52,31V0H1437V31Zm.8,154.76V51.41h40.11l.27,134.3Z"/><path class="cls-1" d="M1524.7,189.74q-18.57-1.08-31.89-8.61a51.23,51.23,0,0,1-20.72-22.2q-7.41-14.67-7.4-37,0-22.61,5.65-37.55t15.74-23.28a60.2,60.2,0,0,1,24.36-11.84,133.54,133.54,0,0,1,31.76-3.5q17,0,29.6,4.31t19.65,12.38q7,8.07,7,19.92v105q0,14.27-4.58,25.16a46.73,46.73,0,0,1-13.59,18.31,61.35,61.35,0,0,1-21.8,11.17,104.56,104.56,0,0,1-29.47,3.76,160.09,160.09,0,0,1-30.82-2.55q-12.78-2.56-19.51-6.33V201.58q4,1.62,11.84,4.31a119.23,119.23,0,0,0,17.5,4.44,108.5,108.5,0,0,0,19.37,1.75q12.66,0,19.52-3.5a19.86,19.86,0,0,0,9.55-9.42,32.24,32.24,0,0,0,2.69-13.45V163.64l7.81,5.65a48.41,48.41,0,0,1-10.23,10.76,45,45,0,0,1-13.86,7.14A59.38,59.38,0,0,1,1524.7,189.74Zm10.23-30.14a53.1,53.1,0,0,0,12.92-1.48,47,47,0,0,0,11.3-4.44V91.24c0-3.77-1.07-6.64-3.23-8.61a17.14,17.14,0,0,0-8.07-4,46.91,46.91,0,0,0-10.23-1.08q-12.37,0-19.51,5.39a29.47,29.47,0,0,0-10.23,14.93,70.29,70.29,0,0,0-3.09,21.67q0,18.57,8.34,29.33A26.29,26.29,0,0,0,1534.93,159.6Z"/><path class="cls-1" d="M1632.09,61.09a94.83,94.83,0,0,1,13.45-5.51,167,167,0,0,1,18.3-5q10-2.16,20.06-3.5a141.57,141.57,0,0,1,18.7-1.35q18.3,0,31.22,4.71t19.78,15.21q6.87,10.5,6.87,28.53v91.51h-40.11V102.27a28.8,28.8,0,0,0-1.48-9.42,18.59,18.59,0,0,0-12.51-12.24A38.4,38.4,0,0,0,1694,78.86a52.83,52.83,0,0,0-12.38,1.48,46.47,46.47,0,0,0-9.42,3.09V185.71h-40.1Z"/><path class="cls-1" d="M1836.36,189.74q-14.53,0-24.89-3.09a203.13,203.13,0,0,1-19.52-6.87V144.53q5.65,3.76,12.65,7.67a72.61,72.61,0,0,0,15.48,6.32,64.61,64.61,0,0,0,17.9,2.42c6.46,0,11-1.11,13.59-3.36a10.45,10.45,0,0,0,3.9-8.21,8.65,8.65,0,0,0-4-7.4,36,36,0,0,0-10.49-4.71q-6.46-1.87-13.73-3.5a65.37,65.37,0,0,1-12.92-4.17,39.89,39.89,0,0,1-11.57-7.67,35.88,35.88,0,0,1-8.21-12q-3.09-7.12-3.1-17.36,0-13.18,5.12-21.93A41.41,41.41,0,0,1,1810,56.52a57.25,57.25,0,0,1,18-7.67,72.72,72.72,0,0,1,18.84-2q16.68.54,26.51,3.63a83.75,83.75,0,0,1,17.9,7.94V89.89q-9.16-5.1-18.17-9.55a46.06,46.06,0,0,0-20.59-4.44q-10.5,0-15.07,3.23a10,10,0,0,0-4.58,8.61,10.61,10.61,0,0,0,3.1,8.07,21.77,21.77,0,0,0,8.21,4.71q5.1,1.76,11.3,3.37c4.48,1.07,9.1,2.38,13.86,3.9a55,55,0,0,1,13.46,6.46A30.78,30.78,0,0,1,1893,125.82q3.88,7.41,3.9,19.51-.27,16.42-8.88,26.25a47.27,47.27,0,0,1-22.21,14A100,100,0,0,1,1836.36,189.74Z"/><path class="cls-1" d="M384.69,262.07a41.58,41.58,0,0,1-5.22-.32,16.81,16.81,0,0,1-4.42-1.12,7.78,7.78,0,0,1-3.05-2.14,5.14,5.14,0,0,1-1.13-3.43V211.21h5.05V230l-1.75-1.75a23,23,0,0,1,3.4-1.33,41.2,41.2,0,0,1,4.11-1.06,18.9,18.9,0,0,1,3.64-.42q8.15,0,12.07,4.74t3.93,12.87a25,25,0,0,1-1.62,9.79,14.57,14.57,0,0,1-4.1,5.75,14.12,14.12,0,0,1-5.37,2.73A22.36,22.36,0,0,1,384.69,262.07Zm-.49-4.63q5,0,7.51-2a10,10,0,0,0,3.4-5.3,27.23,27.23,0,0,0,.87-7.05,19.43,19.43,0,0,0-1.08-6.77,9.58,9.58,0,0,0-3.4-4.56,10.47,10.47,0,0,0-6.18-1.65,20.45,20.45,0,0,0-4.7.6,17.34,17.34,0,0,0-4.7,1.86v21.32a2.52,2.52,0,0,0,1.37,2.32,9,9,0,0,0,3.3,1A27.53,27.53,0,0,0,384.2,257.44Z"/><path class="cls-1" d="M412.12,274.56a7.87,7.87,0,0,1-1.9-.22,12.94,12.94,0,0,1-1.4-.42v-4.63a12,12,0,0,0,1.26.43,6.74,6.74,0,0,0,1.76.21,5.5,5.5,0,0,0,3.85-1.34,10.51,10.51,0,0,0,2.49-3.57,41.5,41.5,0,0,0,1.86-5v2l-14.87-36h5.76l11.64,29.88h-1.05L433.09,226h5.05l-15,38.43a21.38,21.38,0,0,1-3.54,6.32,11.06,11.06,0,0,1-3.86,3A9.38,9.38,0,0,1,412.12,274.56Z"/><path class="cls-1" d="M495.24,238.22V261h-5.05v-22.8a12.12,12.12,0,0,0-.32-2.66,7.58,7.58,0,0,0-1.23-2.71,6.35,6.35,0,0,0-2.8-2.1,13.06,13.06,0,0,0-5-.81,30.44,30.44,0,0,0-4.49.35,36.3,36.3,0,0,0-4.7,1.06V261h-5.05v-32.2a37.09,37.09,0,0,1,3.47-1.51,28.85,28.85,0,0,1,3.65-1.08,31.55,31.55,0,0,1,3.79-.64,35.8,35.8,0,0,1,3.89-.21,18.5,18.5,0,0,1,8.14,1.51,9.28,9.28,0,0,1,4.38,4.39A16.05,16.05,0,0,1,495.24,238.22Zm-6.67-8a24.06,24.06,0,0,1,4.7-2.8,23.13,23.13,0,0,1,5-1.55,27.9,27.9,0,0,1,5.15-.49,18.44,18.44,0,0,1,8.14,1.51,9.28,9.28,0,0,1,4.38,4.39,15.91,15.91,0,0,1,1.37,6.94V261h-5v-22.8a12.09,12.09,0,0,0-.31-2.66,7.58,7.58,0,0,0-1.23-2.71,6.39,6.39,0,0,0-2.81-2.1,13,13,0,0,0-5.05-.81,16.53,16.53,0,0,0-9.19,2.81Z"/><path class="cls-1" d="M528.49,219.77v-5.54h5.61v5.54Zm.28,41.25V226h5.05v35Z"/><path class="cls-1" d="M559.84,262.07a21.08,21.08,0,0,1-5.33-.74,14.21,14.21,0,0,1-5.3-2.73,14.42,14.42,0,0,1-4.07-5.75,25.67,25.67,0,0,1-1.57-9.79q0-8.13,4-12.87t12-4.74a19.08,19.08,0,0,1,3.65.42c1.4.29,2.78.64,4.13,1.06a19.87,19.87,0,0,1,3.37,1.33L569,230v-18.8h5V255a4.57,4.57,0,0,1-1.37,3.34,9.71,9.71,0,0,1-3.54,2.17,23.45,23.45,0,0,1-4.63,1.19A29.61,29.61,0,0,1,559.84,262.07Zm.07-4.63a21.47,21.47,0,0,0,6.35-.84c1.8-.56,2.7-1.26,2.7-2.11v-22a17.4,17.4,0,0,0-4.67-1.86,20.23,20.23,0,0,0-4.73-.6,10.46,10.46,0,0,0-6.14,1.65,9.46,9.46,0,0,0-3.44,4.56,19.43,19.43,0,0,0-1.08,6.77,28.15,28.15,0,0,0,.84,7.05,10,10,0,0,0,3.23,5.3C554.55,256.76,556.87,257.44,559.91,257.44Z"/><path class="cls-1" d="M599.68,262.07a17.2,17.2,0,0,1-8.63-2.07,13.62,13.62,0,0,1-5.61-6.21,24,24,0,0,1-2-10.31q0-9,4.1-13.57t11.26-4.53a14.79,14.79,0,0,1,9,2.53,13.88,13.88,0,0,1,4.88,6.8,28.49,28.49,0,0,1,1.4,9.68H586l.35-4.63h24.48l-2,.71q-.21-5.26-2.63-7.86c-1.62-1.73-4.08-2.6-7.4-2.6a11.61,11.61,0,0,0-5.72,1.27,7.71,7.71,0,0,0-3.4,4.38,26.75,26.75,0,0,0-1.12,8.73q0,6.39,3,9.72t8.38,3.33a27.09,27.09,0,0,0,4.77-.39,20.9,20.9,0,0,0,7.22-2.63v5.19a24.44,24.44,0,0,1-5.57,1.83A33.24,33.24,0,0,1,599.68,262.07Z"/><rect class="cls-1" width="276.24" height="276.24" rx="40"/><path class="cls-2" d="M175.76,176.35A7.59,7.59,0,1,1,187,174.16l54.22,42.65c-14-31.28-13.71-49.83-14-85.23-.42-56.57-51.79-65.78-74.9-40a39.63,39.63,0,0,0-6.65,10.17L114.11,76.88l3.38,2.65L77.33,130.59l-3.42-2.69,40.16-51.06L87.55,56a32.48,32.48,0,0,0-45.61,5.45h0A32.48,32.48,0,0,0,47.39,107l58.2,45.77a39.26,39.26,0,0,0-8.32,8.87C77.66,190.2,98.7,238,153.78,225c34.47-8.09,52.42-12.76,86.13-6.5l-54.23-42.65A7.59,7.59,0,0,1,175.76,176.35ZM60,116.93l40.15-51.05,3.42,2.69L63.39,119.62Z"/><polygon class="cls-1" points="114.07 76.84 114.07 76.84 114.11 76.88 114.07 76.84"/></g></g></svg>